:SAMPLES-PER-SECOND 30
:FRAME-RANGE 1-1770
:FULLY-SPECIFIED
:DEGREES
1660
root  -16.7797 39.0179 -24.8653 1.67252 13.6671 1.58289
RightUpLeg  5.80295 0.366569 2.51754
RightLeg  15.3327 -1.77155 -1.2366
RightFoot  -20.0055 -0.204449 -0.912244
RightToes  -1.33073e-015 0 -3.6325e-017
Spine  -8.87381 1.29352 2.66072
Spine1  11.412 1.83007 -2.58734
HEad  13.8213 2.89302 -0.474811
LeftShoulder1  1.29131 -0.9762 -24.188
LeftArm  -5.10469 12.116 -49.7972
LeftForeArm  35.4945 7.69406 -12.1163
LeftHand  -0.0252646 5.41761 3.24176
RightShoulder  1.85783 2.75802 24.5559
RightArm  -17.0363 21.1177 55.0166
RightForeArm  64.48 -5.9663 6.26829
RightHand  0.0262507 -5.63043 -18.495
LeftUpLeg  -21.1815 -1.46161 -1.94287
LeftLeg  -2.56029 10.0864 0.348216
LeftFoot  -4.17908 0.393799 -5.88935
LeftToes  1.09107e-011 -1.16422e-010 2.98337e-011
1661
root  -16.4411 38.7795 -23.7164 1.33041 14.2802 2.01959
RightUpLeg  7.38834 1.68441 2.4237
RightLeg  17.5081 -3.48384 -1.57226
RightFoot  -21.5861 -0.140064 0.0675404
RightToes  -1.33073e-015 0 -3.6325e-017
Spine  -8.66422 1.29702 2.13072
Spine1  11.4306 1.99718 -3.02472
HEad  13.4375 1.82151 -0.196413
LeftShoulder1  1.30433 -1.03161 -24.0989
LeftArm  -4.94744 12.3988 -49.3148
LeftForeArm  35.8987 7.71782 -12.3159
LeftHand  -0.0213177 5.58183 3.3063
RightShoulder  1.90597 2.90177 24.6297
RightArm  -17.8536 21.5862 55.4428
RightForeArm  66.1194 -5.81078 5.68395
RightHand  0.0616807 -5.86022 -18.3261
LeftUpLeg  -22.218 -1.66406 -2.91095
LeftLeg  2.44434 7.9717 0.483398
LeftFoot  -1.69856 0.252863 -2.87709
LeftToes  1.09107e-011 -1.16422e-010 2.98337e-011
1662
root  -16.0774 38.7028 -22.5027 1.09729 13.6928 3.08661
RightUpLeg  8.58577 3.68618 1.71484
RightLeg  20.4745 -4.29923 -1.98647
RightFoot  -21.9325 0.0022895 1.62727
RightToes  -1.33073e-015 0 -3.6325e-017
Spine  -8.9628 1.76832 1.17605
Spine1  12.0062 2.80687 -4.01116
HEad  13.3607 1.00202 0.213104
LeftShoulder1  1.21194 -0.759263 -23.8258
LeftArm  -4.83904 12.4048 -48.9713
LeftForeArm  36.7643 7.73758 -12.5455
LeftHand  -0.0185262 5.75117 3.02519
RightShoulder  2.01854 3.17731 25.0918
RightArm  -18.0863 21.8853 55.0495
RightForeArm  66.7593 -5.77047 5.58335
RightHand  0.0774436 -5.96707 -18.1698
LeftUpLeg  -21.4459 -3.38117 -4.36408
LeftLeg  4.58556 8.1229 2.08775
LeftFoot  3.25091 0.225671 -1.9169
LeftToes  1.09107e-011 -1.16422e-010 2.98337e-011
1663
root  -15.7037 38.6348 -21.2828 1.19101 12.5141 4.45984
RightUpLeg  7.86202 5.84361 0.513226
RightLeg  26.4838 -3.85532 -2.31027
RightFoot  -21.5686 0.244703 4.3669
RightToes  -1.33073e-015 0 -3.6325e-017
Spine  -9.355 2.46517 -0.184017
Spine1  12.2339 3.74413 -4.85479
HEad  13.9654 0.636372 0.537538
LeftShoulder1  1.07783 -0.313275 -23.79
LeftArm  -4.38603 12.3848 -48.342
LeftForeArm  37.0878 7.77794 -12.8607
LeftHand  -0.0122687 6.03592 3.06352
RightShoulder  2.12116 3.39085 25.6638
RightArm  -19.1586 21.3589 54.9878
RightForeArm  68.0026 -5.63662 5.05357
RightHand  0.0778889 -5.95814 -18.4711
LeftUpLeg  -20.9963 -3.64809 -5.60458
LeftLeg  7.37764 9.36072 2.65924
LeftFoot  5.50616 0.159323 -1.30204
LeftToes  1.09107e-011 -1.16422e-010 2.98337e-011
1664
root  -15.2976 38.6061 -20.0869 1.29648 12.2873 5.58057
RightUpLeg  5.40469 5.842 -1.28081
RightLeg  34.9509 -1.3667 -1.27738
RightFoot  -18.9493 0.356599 7.28926
RightToes  -1.33073e-015 0 -3.6325e-017
Spine  -9.6676 2.76712 -1.26264
Spine1  12.3173 4.16907 -5.43159
HEad  14.7585 0.348074 0.65166
LeftShoulder1  1.08928 -0.334851 -23.9353
LeftArm  -4.26872 12.2917 -47.6943
LeftForeArm  37.3829 7.77965 -12.9434
LeftHand  -0.016255 6.0028 2.55533
RightShoulder  2.12493 3.37517 25.8006
RightArm  -20.6352 20.499 55.3781
RightForeArm  69.1786 -5.45855 4.24745
RightHand  0.104503 -6.11619 -18.6926
LeftUpLeg  -20.3261 -2.94646 -6.65777
LeftLeg  10.0468 9.24653 2.12992
LeftFoot  5.06949 0.211733 -1.68219
LeftToes  1.09107e-011 -1.16422e-010 2.98337e-011
1665
root  -14.8606 38.6427 -18.9714 1.2485 12.5966 6.14905
RightUpLeg  1.2015 3.58901 -3.68145
RightLeg  44.9911 1.82266 1.6471
RightFoot  -12.3928 0.0146943 10.7687
RightToes  -1.33073e-015 0 -3.6325e-017
Spine  -9.85087 2.76201 -1.52496
Spine1  12.4397 4.22518 -6.20393
HEad  15.6355 0.361209 0.194263
LeftShoulder1  1.17775 -0.627917 -23.9578
LeftArm  -4.11579 12.0812 -47.5066
LeftForeArm  37.5782 7.77949 -13.01
LeftHand  -0.0154571 6.02426 2.58361
RightShoulder  2.11778 3.467 25.2394
RightArm  -22.4671 19.1117 56.3818
RightForeArm  70.6122 -5.2274 3.19261
RightHand  0.12939 -6.30137 -18.177
LeftUpLeg  -19.229 -2.60785 -7.72011
LeftLeg  11.8304 8.53678 1.92058
LeftFoot  4.52475 -0.106805 0.569439
LeftToes  1.09107e-011 -1.16422e-010 2.98337e-011
1666
root  -14.4445 38.6509 -17.8915 1.17441 12.8778 6.85144
RightUpLeg  -4.19814 1.41809 -6.06805
RightLeg  55.7398 2.54053 3.60182
RightFoot  -3.70107 -0.987989 14.3468
RightToes  -1.33073e-015 0 -3.6325e-017
Spine  -10.0387 2.50151 -2.80613
Spine1  12.6901 3.77766 -5.72798
HEad  16.3653 0.955662 -0.804779
LeftShoulder1  1.14802 -0.469466 -24.4499
LeftArm  -3.52564 11.2311 -47.2972
LeftForeArm  37.6652 7.78012 -13.1695
LeftHand  -0.0150047 5.9885 2.50277
RightShoulder  2.14797 3.7381 24.4296
RightArm  -23.3699 18.0091 57.1238
RightForeArm  71.8864 -5.09318 2.69112
RightHand  0.132205 -6.38768 -17.1096
LeftUpLeg  -18.0393 -2.42974 -8.9539
LeftLeg  13.64 8.13254 1.88681
LeftFoot  3.04039 -0.38793 2.9282
LeftToes  1.09107e-011 -1.16422e-010 2.98337e-011
